<svg id="visual" viewBox="0 0 900 600" width="900" height="600" xmlns="http://www.w3.org/2000/svg" xmlns:xlink="http://www.w3.org/1999/xlink" version="1.1"><rect x="0" y="0" width="900" height="600" fill="#ffffff"></rect><defs><linearGradient id="grad1_0" x1="33.3%" y1="100%" x2="100%" y2="0%"><stop offset="20%" stop-color="#ec9df2" stop-opacity="1"></stop><stop offset="80%" stop-color="#ec9df2" stop-opacity="1"></stop></linearGradient></defs><defs><linearGradient id="grad1_1" x1="33.3%" y1="100%" x2="100%" y2="0%"><stop offset="20%" stop-color="#ec9df2" stop-opacity="1"></stop><stop offset="80%" stop-color="#ffffff" stop-opacity="1"></stop></linearGradient></defs><defs><linearGradient id="grad2_0" x1="0%" y1="100%" x2="66.7%" y2="0%"><stop offset="20%" stop-color="#ec9df2" stop-opacity="1"></stop><stop offset="80%" stop-color="#ec9df2" stop-opacity="1"></stop></linearGradient></defs><defs><linearGradient id="grad2_1" x1="0%" y1="100%" x2="66.7%" y2="0%"><stop offset="20%" stop-color="#ffffff" stop-opacity="1"></stop><stop offset="80%" stop-color="#ec9df2" stop-opacity="1"></stop></linearGradient></defs><g transform="translate(900, 600)"><path d="M-378.6 0C-359.9 -43.6 -341.2 -87.1 -326.1 -135.1C-311.1 -183.1 -299.6 -235.5 -267.7 -267.7C-235.8 -299.9 -183.5 -311.9 -135.5 -327.1C-87.4 -342.2 -43.7 -360.4 0 -378.6L0 0Z" fill="#f7cff9"></path><path d="M-189.3 0C-179.9 -21.8 -170.6 -43.6 -163.1 -67.5C-155.5 -91.5 -149.8 -117.7 -133.8 -133.8C-117.9 -150 -91.7 -156 -67.7 -163.5C-43.7 -171.1 -21.9 -180.2 0 -189.3L0 0Z" fill="#ec9df2"></path></g><g transform="translate(0, 0)"><path d="M378.6 0C361.5 46.2 344.5 92.5 324.3 134.3C304.1 176.2 280.8 213.6 251.7 251.7C222.7 289.8 187.8 328.5 144.9 349.8C102 371 51 374.8 0 378.6L0 0Z" fill="#f7cff9"></path><path d="M189.3 0C180.8 23.1 172.2 46.2 162.1 67.2C152.1 88.1 140.4 106.8 125.9 125.9C111.3 144.9 93.9 164.3 72.4 174.9C51 185.5 25.5 187.4 0 189.3L0 0Z" fill="#ec9df2"></path></g></svg>